<svg width="18" height="16" viewBox="0 0 18 16" fill="none" xmlns="http://www.w3.org/2000/svg">
<path d="M1.56575 7.04395H17.2167C17.4243 7.04395 17.6233 7.12639 17.7701 7.27315C17.9168 7.4199 17.9993 7.61895 17.9993 7.82649C17.9993 8.03404 17.9168 8.23308 17.7701 8.37984C17.6233 8.52659 17.4243 8.60904 17.2167 8.60904H1.56575C1.35821 8.60904 1.15916 8.52659 1.01241 8.37984C0.86565 8.23308 0.783203 8.03404 0.783203 7.82649C0.783203 7.61895 0.86565 7.4199 1.01241 7.27315C1.15916 7.12639 1.35821 7.04395 1.56575 7.04395Z" fill="#074B89"/>
<path d="M1.89047 7.82647L8.38092 14.3154C8.52786 14.4623 8.61041 14.6616 8.61041 14.8694C8.61041 15.0772 8.52786 15.2765 8.38092 15.4234C8.23398 15.5704 8.03468 15.6529 7.82688 15.6529C7.61907 15.6529 7.41978 15.5704 7.27283 15.4234L0.229903 8.38051C0.157027 8.30782 0.0992079 8.22146 0.0597574 8.12639C0.0203069 8.03132 0 7.9294 0 7.82647C0 7.72354 0.0203069 7.62161 0.0597574 7.52654C0.0992079 7.43147 0.157027 7.34511 0.229903 7.27242L7.27283 0.229492C7.41978 0.0825507 7.61907 0 7.82688 0C8.03468 0 8.23398 0.0825507 8.38092 0.229492C8.52786 0.376434 8.61041 0.57573 8.61041 0.783536C8.61041 0.991343 8.52786 1.19064 8.38092 1.33758L1.89047 7.82647Z" fill="#074B89"/>
</svg>
