<svg width="34" height="30" viewBox="0 0 34 30" fill="none" xmlns="http://www.w3.org/2000/svg">
<path d="M17 8.4113C18.0714 4.1932 22.1181 2.03941 30.9286 2.00001C31.0694 1.99948 31.209 2.02676 31.3392 2.08027C31.4694 2.13378 31.5878 2.21247 31.6874 2.3118C31.787 2.41113 31.8659 2.52913 31.9195 2.65901C31.9732 2.7889 32.0005 2.92808 32 3.06856V22.3024C32 22.5858 31.8871 22.8576 31.6862 23.058C31.4852 23.2584 31.2127 23.371 30.9286 23.371C22.3571 23.371 19.0458 25.0947 17 27.6452M17 8.4113C15.9286 4.1932 11.8819 2.03941 3.07144 2.00001C2.93058 1.99948 2.79102 2.02676 2.66079 2.08027C2.53056 2.13378 2.41223 2.21247 2.31264 2.3118C2.21304 2.41113 2.13414 2.52913 2.08048 2.65901C2.02683 2.7889 1.99948 2.92808 2.00001 3.06856V22.1735C2.00001 22.8334 2.40983 23.371 3.07144 23.371C11.6429 23.371 14.9663 25.1074 17 27.6452M17 8.4113V27.6452" stroke="white" stroke-width="4" stroke-linecap="round" stroke-linejoin="round"/>
</svg>
