<svg width="48" height="48" viewBox="0 0 48 48" fill="none" xmlns="http://www.w3.org/2000/svg">
<path d="M34 7.00011C34 6.73489 33.8946 6.48054 33.7071 6.293C33.5196 6.10546 33.2652 6.00011 33 6.00011H28C25.4822 5.87469 23.0172 6.75089 21.1434 8.43727C19.2697 10.1236 18.1396 12.4831 18 15.0001V20.4001H13C12.7348 20.4001 12.4804 20.5055 12.2929 20.693C12.1054 20.8805 12 21.1349 12 21.4001V26.6001C12 26.8653 12.1054 27.1197 12.2929 27.3072C12.4804 27.4947 12.7348 27.6001 13 27.6001H18V41.0001C18 41.2653 18.1054 41.5197 18.2929 41.7072C18.4804 41.8948 18.7348 42.0001 19 42.0001H25C25.2652 42.0001 25.5196 41.8948 25.7071 41.7072C25.8946 41.5197 26 41.2653 26 41.0001V27.6001H31.24C31.4624 27.6033 31.6795 27.5323 31.857 27.3983C32.0345 27.2642 32.1622 27.0749 32.22 26.8601L33.66 21.6601C33.6998 21.5124 33.7051 21.3574 33.6756 21.2073C33.6461 21.0571 33.5826 20.9158 33.4898 20.794C33.3971 20.6723 33.2777 20.5735 33.1407 20.5052C33.0038 20.4369 32.853 20.401 32.7 20.4001H26V15.0001C26.0497 14.5051 26.2822 14.0463 26.652 13.7135C27.0219 13.3807 27.5025 13.1976 28 13.2001H33C33.2652 13.2001 33.5196 13.0947 33.7071 12.9072C33.8946 12.7197 34 12.4653 34 12.2001V7.00011Z" fill="#3B5998"/>
</svg>
