<svg width="20" height="26" viewBox="0 0 20 26" fill="none" xmlns="http://www.w3.org/2000/svg">
<path d="M10.0005 14.5455C9.10153 14.5455 8.22271 14.2789 7.47521 13.7794C6.72772 13.28 6.14512 12.5701 5.80108 11.7395C5.45705 10.9089 5.36703 9.995 5.54242 9.11327C5.71781 8.23154 6.15072 7.42162 6.78641 6.78592C7.4221 6.15023 8.23203 5.71732 9.11376 5.54193C9.99549 5.36654 10.9094 5.45656 11.74 5.80059C12.5706 6.14463 13.2805 6.72723 13.7799 7.47473C14.2794 8.22222 14.546 9.10104 14.546 10C14.5445 11.2051 14.0652 12.3604 13.2131 13.2126C12.3609 14.0647 11.2056 14.544 10.0005 14.5455ZM10.0005 7.27277C9.46113 7.27277 8.93384 7.43272 8.48534 7.7324C8.03684 8.03208 7.68728 8.45802 7.48086 8.95636C7.27444 9.4547 7.22043 10.0031 7.32566 10.5321C7.4309 11.0611 7.69064 11.5471 8.07206 11.9285C8.45347 12.3099 8.93943 12.5697 9.46847 12.6749C9.99751 12.7801 10.5459 12.7261 11.0442 12.5197C11.5426 12.3133 11.9685 11.9637 12.2682 11.5152C12.5678 11.0667 12.7278 10.5394 12.7278 10C12.7271 9.27695 12.4395 8.58367 11.9282 8.07237C11.4169 7.56106 10.7236 7.27349 10.0005 7.27277Z" fill="black"/>
<path d="M10 25.4545L2.33092 16.41C2.22435 16.2742 2.1189 16.1375 2.01455 16C0.704538 14.2743 -0.00316471 12.1666 1.0639e-05 9.99999C1.0639e-05 7.34783 1.05358 4.80429 2.92894 2.92893C4.8043 1.05357 7.34784 0 10 0C12.6522 0 15.1957 1.05357 17.0711 2.92893C18.9464 4.80429 20 7.34783 20 9.99999C20.0032 12.1656 19.2958 14.2724 17.9864 15.9973L17.9854 16C17.9854 16 17.7127 16.3582 17.6718 16.4063L10 25.4545ZM3.46546 14.9045C3.46728 14.9045 3.67819 15.1845 3.72637 15.2445L10 22.6436L16.2818 15.2345C16.3218 15.1845 16.5345 14.9027 16.5354 14.9018C17.6056 13.4919 18.1839 11.77 18.1818 9.99999C18.1818 7.83004 17.3198 5.74896 15.7854 4.21458C14.251 2.68019 12.17 1.81818 10 1.81818C7.83005 1.81818 5.74897 2.68019 4.21459 4.21458C2.6802 5.74896 1.81819 7.83004 1.81819 9.99999C1.81628 11.7711 2.39435 13.494 3.46546 14.9045Z" fill="black"/>
</svg>
