<svg width="25" height="25" viewBox="0 0 25 25" fill="none" xmlns="http://www.w3.org/2000/svg">
<path d="M2.64855 2.46066H8.17275L9.95304 6.91201L7.09251 8.81902C6.92406 8.93141 6.78595 9.08364 6.69045 9.26221C6.59494 9.44077 6.54499 9.64015 6.54502 9.84266C6.54871 9.95831 6.54502 9.84389 6.54502 9.84389V9.86973C6.54574 9.92474 6.54821 9.97973 6.5524 10.0346C6.55978 10.1355 6.57208 10.272 6.59546 10.4406C6.64344 10.7728 6.73572 11.2305 6.91535 11.7694C7.27706 12.8521 7.98573 14.2534 9.36617 15.6338C10.7466 17.0143 12.1479 17.7229 13.2294 18.0847C13.7695 18.2643 14.226 18.3553 14.5606 18.4045C14.7495 18.4309 14.9397 18.4473 15.1303 18.4538L15.1463 18.455H15.1561C15.1561 18.455 15.2939 18.4476 15.1573 18.455C15.3858 18.4549 15.6096 18.3912 15.8039 18.271C15.9982 18.1508 16.1552 17.9789 16.2573 17.7746L17.0816 16.126L22.5393 17.0364V22.3514C19.9421 22.7267 12.9267 23.097 7.41486 17.5851C1.90297 12.0732 2.27207 5.05667 2.64855 2.46066ZM9.09549 10.4406L11.3187 8.95928C11.7884 8.646 12.136 8.18075 12.3034 7.64155C12.4707 7.10235 12.4475 6.52201 12.2378 5.99787L10.4575 1.54653C10.2748 1.08996 9.95948 0.698601 9.55224 0.422941C9.145 0.147282 8.66451 -3.29648e-05 8.17275 5.53308e-09H2.58458C1.4662 5.53308e-09 0.41427 0.77634 0.230951 1.98945C-0.187362 4.74785 -0.754545 12.8951 5.67517 19.3248C12.1049 25.7545 20.2521 25.1861 23.0106 24.769C24.2237 24.5845 25 23.5338 25 22.4154V17.0364C25.0001 16.4539 24.7935 15.8903 24.4171 15.4458C24.0406 15.0013 23.5187 14.7048 22.9441 14.609L17.4864 13.6997C16.9673 13.6131 16.4341 13.6952 15.9651 13.9339C15.4961 14.1726 15.1159 14.5554 14.8805 15.026L14.4548 15.8787C14.3043 15.8416 14.1553 15.7985 14.0082 15.7495C13.2454 15.496 12.1861 14.9744 11.1059 13.8941C10.0256 12.8139 9.50397 11.7546 9.25052 10.9906C9.19 10.81 9.13867 10.6264 9.09673 10.4406H9.09549Z" fill="black"/>
</svg>
