<svg width="26" height="26" viewBox="0 0 26 26" fill="none" xmlns="http://www.w3.org/2000/svg">
<circle cx="13" cy="13" r="13" fill="#20B15A"/>
<path d="M16.25 11.6999C16.25 12.5619 15.9076 13.3885 15.2981 13.998C14.6886 14.6075 13.862 14.9499 13 14.9499C12.138 14.9499 11.3114 14.6075 10.7019 13.998C10.0924 13.3885 9.75 12.5619 9.75 11.6999V7.1499C9.75 6.28795 10.0924 5.4613 10.7019 4.85181C11.3114 4.24231 12.138 3.8999 13 3.8999C13.862 3.8999 14.6886 4.24231 15.2981 4.85181C15.9076 5.4613 16.25 6.28795 16.25 7.1499V11.6999Z" stroke="white" stroke-linecap="round" stroke-linejoin="round"/>
<path d="M19.5 12.3499C19.5017 13.1186 19.3516 13.88 19.0582 14.5906C18.7648 15.3011 18.334 15.9467 17.7904 16.4902C17.2468 17.0338 16.6013 17.4647 15.8907 17.758C15.1802 18.0514 14.4187 18.2016 13.65 18.1999H12.35C11.5813 18.2016 10.8198 18.0514 10.1093 17.758C9.39876 17.4647 8.75318 17.0338 8.20962 16.4902C7.66605 15.9467 7.23521 15.3011 6.94183 14.5906C6.64845 13.88 6.4983 13.1186 6.50001 12.3499M13 18.1999V20.7999" stroke="white" stroke-linecap="round" stroke-linejoin="round"/>
</svg>
